<svg xmlns="http://www.w3.org/2000/svg" viewBox="0 0 700 510" role="img"><title>青花莲蔓纹－国际市场轻量版</title><desc>元代青花瓷莲花与缠枝纹装饰体系；原创结构转译，编号 LW-YUAN-001，生成种子 297。</desc><rect width="700" height="510" fill="#e7d9bb"/><g transform="translate(236 142) scale(1.8) rotate(0 64 64)"><path fill="none" stroke="#7b2634" stroke-width="5" stroke-linecap="round" stroke-linejoin="round" d="M64 18 C83 35 99 45 107 64 C94 87 80 103 64 112 C48 103 34 87 21 64 C29 45 45 35 64 18 Z"/><path fill="none" stroke="#7b2634" stroke-width="5" stroke-linecap="round" stroke-linejoin="round" d="M64 28 Q82 55 64 94 Q46 55 64 28 M29 64 Q64 43 99 64 Q64 85 29 64"/><circle cx="64" cy="64" r="11" fill="#d4a64a" stroke="#7b2634" stroke-width="3"/></g><path d="M80 410H620" stroke="#d4a64a" stroke-width="3"/><circle cx="103" cy="92" r="18" fill="#d4a64a" opacity=".5"/><circle cx="596" cy="414" r="28" fill="#7b2634" opacity=".12"/></svg>