<svg xmlns="http://www.w3.org/2000/svg" viewBox="0 0 700 510" role="img"><title>莲池鸳侣纹－原型还原版</title><desc>鸳鸯、莲花与水波和合母题；原创结构转译，编号 LW-SONG-004，生成种子 272。</desc><rect width="700" height="510" fill="#f1d79c"/><g transform="translate(186 90) scale(2.55) rotate(0 64 64)"><path fill="none" stroke="#3e5367" stroke-width="3" stroke-linecap="round" stroke-linejoin="round" d="M18 98 Q39 73 61 76 Q76 48 99 45 Q88 64 103 75 Q82 93 58 86 Q39 105 18 98 Z M58 76 Q49 49 62 27 Q74 46 69 67 M47 82 Q31 59 17 60"/><circle cx="92" cy="68" r="3" fill="#3e5367"/><path fill="none" stroke="#3e5367" stroke-width="3" stroke-linecap="round" stroke-linejoin="round" d="M18 103 Q63 111 111 95 M31 102 Q22 84 26 70"/></g><circle cx="350" cy="255" r="214" fill="none" stroke="#f8f2e8" stroke-width="4"/><circle cx="350" cy="255" r="228" fill="none" stroke="#c56b4b" stroke-width="2"/></svg>