<svg xmlns="http://www.w3.org/2000/svg" viewBox="0 0 700 510" role="img"><title>团花生肖门对纹－现代简化版</title><desc>中国民间剪纸、门画与年画中的对称、满构图和套色传统；原创结构转译，编号 LW-NY-126，生成种子 5815。</desc><rect width="700" height="510" fill="#f5ead8"/><g transform="translate(222 126) scale(2) rotate(0 64 64)"><path fill="#8f2d2d" d="M64 14 C75 35 91 31 111 29 C103 49 91 59 78 64 C91 69 103 79 111 99 C91 97 75 93 64 114 C53 93 37 97 17 99 C25 79 37 69 50 64 C37 59 25 49 17 29 C37 31 53 35 64 14 Z"/><circle cx="64" cy="64" r="16" fill="#d9a441"/><circle cx="64" cy="64" r="7" fill="#8f2d2d"/></g><circle cx="350" cy="255" r="160" fill="none" stroke="#d9a441" stroke-width="7"/></svg>