<svg xmlns="http://www.w3.org/2000/svg" viewBox="0 0 700 510" role="img"><title>榴开富贵纹－独立元素版</title><desc>明清刻本植物图谱母题；原创结构转译，编号 LW-MQ-001，生成种子 60。</desc><rect width="700" height="510" fill="#f0e4ca"/><g transform="translate(22 25) scale(1.3) rotate(0 64 64)"><path fill="none" stroke="#173f35" stroke-width="3" stroke-linecap="round" stroke-linejoin="round" d="M64 112 V23 M64 44 Q39 24 26 40 Q41 62 64 58 M64 66 Q89 42 105 58 Q92 81 64 79 M64 87 Q42 71 30 88 Q44 105 64 101"/><circle fill="#ad7f35" stroke="#173f35" stroke-width="3" cx="64" cy="24" r="13"/><path fill="none" stroke="#173f35" stroke-width="3" stroke-linecap="round" stroke-linejoin="round" d="M20 18 H108 M20 116 H108"/></g><g transform="translate(265 40) scale(1.05) rotate(45 64 64)"><path fill="none" stroke="#173f35" stroke-width="3" stroke-linecap="round" stroke-linejoin="round" d="M64 112 V23 M64 44 Q39 24 26 40 Q41 62 64 58 M64 66 Q89 42 105 58 Q92 81 64 79 M64 87 Q42 71 30 88 Q44 105 64 101"/><circle fill="#ad7f35" stroke="#173f35" stroke-width="3" cx="64" cy="24" r="13"/><path fill="none" stroke="#173f35" stroke-width="3" stroke-linecap="round" stroke-linejoin="round" d="M20 18 H108 M20 116 H108"/></g><g transform="translate(492 28) scale(0.9) rotate(-30 64 64)"><path fill="none" stroke="#173f35" stroke-width="3" stroke-linecap="round" stroke-linejoin="round" d="M64 112 V23 M64 44 Q39 24 26 40 Q41 62 64 58 M64 66 Q89 42 105 58 Q92 81 64 79 M64 87 Q42 71 30 88 Q44 105 64 101"/><circle fill="#ad7f35" stroke="#173f35" stroke-width="3" cx="64" cy="24" r="13"/><path fill="none" stroke="#173f35" stroke-width="3" stroke-linecap="round" stroke-linejoin="round" d="M20 18 H108 M20 116 H108"/></g><g transform="translate(105 284) scale(0.82) rotate(90 64 64)"><path fill="none" stroke="#173f35" stroke-width="3" stroke-linecap="round" stroke-linejoin="round" d="M64 112 V23 M64 44 Q39 24 26 40 Q41 62 64 58 M64 66 Q89 42 105 58 Q92 81 64 79 M64 87 Q42 71 30 88 Q44 105 64 101"/><circle fill="#ad7f35" stroke="#173f35" stroke-width="3" cx="64" cy="24" r="13"/><path fill="none" stroke="#173f35" stroke-width="3" stroke-linecap="round" stroke-linejoin="round" d="M20 18 H108 M20 116 H108"/></g><g transform="translate(345 264) scale(1.25) rotate(180 64 64)"><path fill="none" stroke="#173f35" stroke-width="3" stroke-linecap="round" stroke-linejoin="round" d="M64 112 V23 M64 44 Q39 24 26 40 Q41 62 64 58 M64 66 Q89 42 105 58 Q92 81 64 79 M64 87 Q42 71 30 88 Q44 105 64 101"/><circle fill="#ad7f35" stroke="#173f35" stroke-width="3" cx="64" cy="24" r="13"/><path fill="none" stroke="#173f35" stroke-width="3" stroke-linecap="round" stroke-linejoin="round" d="M20 18 H108 M20 116 H108"/></g><g transform="translate(548 300) scale(0.7) rotate(0 64 64)"><path fill="none" stroke="#173f35" stroke-width="3" stroke-linecap="round" stroke-linejoin="round" d="M64 112 V23 M64 44 Q39 24 26 40 Q41 62 64 58 M64 66 Q89 42 105 58 Q92 81 64 79 M64 87 Q42 71 30 88 Q44 105 64 101"/><circle fill="#ad7f35" stroke="#173f35" stroke-width="3" cx="64" cy="24" r="13"/><path fill="none" stroke="#173f35" stroke-width="3" stroke-linecap="round" stroke-linejoin="round" d="M20 18 H108 M20 116 H108"/></g></svg>