<svg xmlns="http://www.w3.org/2000/svg" viewBox="0 0 700 510" role="img"><title>青瓷莲漪纹－连续二方纹</title><desc>宋代青瓷刻花莲纹与水波母题；原创结构转译，编号 LW-SONG-002，生成种子 189。</desc><rect width="700" height="510" fill="#e7d9bb"/><g transform="translate(-10 176) scale(1.25) rotate(0 64 64)"><path fill="none" stroke="#7b2634" stroke-width="3" stroke-linecap="round" stroke-linejoin="round" d="M64 18 C83 35 99 45 107 64 C94 87 80 103 64 112 C48 103 34 87 21 64 C29 45 45 35 64 18 Z"/><path fill="none" stroke="#7b2634" stroke-width="3" stroke-linecap="round" stroke-linejoin="round" d="M64 28 Q82 55 64 94 Q46 55 64 28 M29 64 Q64 43 99 64 Q64 85 29 64"/><circle cx="64" cy="64" r="11" fill="#d4a64a" stroke="#7b2634" stroke-width="3"/></g><g transform="translate(135 176) scale(1.25) rotate(180 64 64)"><path fill="none" stroke="#7b2634" stroke-width="3" stroke-linecap="round" stroke-linejoin="round" d="M64 18 C83 35 99 45 107 64 C94 87 80 103 64 112 C48 103 34 87 21 64 C29 45 45 35 64 18 Z"/><path fill="none" stroke="#7b2634" stroke-width="3" stroke-linecap="round" stroke-linejoin="round" d="M64 28 Q82 55 64 94 Q46 55 64 28 M29 64 Q64 43 99 64 Q64 85 29 64"/><circle cx="64" cy="64" r="11" fill="#d4a64a" stroke="#7b2634" stroke-width="3"/></g><g transform="translate(280 176) scale(1.25) rotate(0 64 64)"><path fill="none" stroke="#7b2634" stroke-width="3" stroke-linecap="round" stroke-linejoin="round" d="M64 18 C83 35 99 45 107 64 C94 87 80 103 64 112 C48 103 34 87 21 64 C29 45 45 35 64 18 Z"/><path fill="none" stroke="#7b2634" stroke-width="3" stroke-linecap="round" stroke-linejoin="round" d="M64 28 Q82 55 64 94 Q46 55 64 28 M29 64 Q64 43 99 64 Q64 85 29 64"/><circle cx="64" cy="64" r="11" fill="#d4a64a" stroke="#7b2634" stroke-width="3"/></g><g transform="translate(425 176) scale(1.25) rotate(180 64 64)"><path fill="none" stroke="#7b2634" stroke-width="3" stroke-linecap="round" stroke-linejoin="round" d="M64 18 C83 35 99 45 107 64 C94 87 80 103 64 112 C48 103 34 87 21 64 C29 45 45 35 64 18 Z"/><path fill="none" stroke="#7b2634" stroke-width="3" stroke-linecap="round" stroke-linejoin="round" d="M64 28 Q82 55 64 94 Q46 55 64 28 M29 64 Q64 43 99 64 Q64 85 29 64"/><circle cx="64" cy="64" r="11" fill="#d4a64a" stroke="#7b2634" stroke-width="3"/></g><g transform="translate(570 176) scale(1.25) rotate(0 64 64)"><path fill="none" stroke="#7b2634" stroke-width="3" stroke-linecap="round" stroke-linejoin="round" d="M64 18 C83 35 99 45 107 64 C94 87 80 103 64 112 C48 103 34 87 21 64 C29 45 45 35 64 18 Z"/><path fill="none" stroke="#7b2634" stroke-width="3" stroke-linecap="round" stroke-linejoin="round" d="M64 28 Q82 55 64 94 Q46 55 64 28 M29 64 Q64 43 99 64 Q64 85 29 64"/><circle cx="64" cy="64" r="11" fill="#d4a64a" stroke="#7b2634" stroke-width="3"/></g><path d="M0 155H700M0 355H700" stroke="#283c45" stroke-width="5"/></svg>