<svg xmlns="http://www.w3.org/2000/svg" viewBox="0 0 700 510" role="img"><title>缠枝牡丹缠枝纹－原型还原版</title><desc>历代陶瓷中的莲纹、缠枝花卉、海水与几何边饰体系；原创结构转译，编号 LW-TC-112，生成种子 2907。</desc><rect width="700" height="510" fill="#f0e4ca"/><g transform="translate(186 90) scale(2.55) rotate(0 64 64)"><path fill="none" stroke="#173f35" stroke-width="3" stroke-linecap="round" stroke-linejoin="round" d="M64 18 C83 35 99 45 107 64 C94 87 80 103 64 112 C48 103 34 87 21 64 C29 45 45 35 64 18 Z"/><path fill="none" stroke="#173f35" stroke-width="3" stroke-linecap="round" stroke-linejoin="round" d="M64 28 Q82 55 64 94 Q46 55 64 28 M29 64 Q64 43 99 64 Q64 85 29 64"/><circle cx="64" cy="64" r="11" fill="#ad7f35" stroke="#173f35" stroke-width="3"/></g><circle cx="350" cy="255" r="214" fill="none" stroke="#963b34" stroke-width="4"/><circle cx="350" cy="255" r="228" fill="none" stroke="#ad7f35" stroke-width="2"/></svg>