<svg xmlns="http://www.w3.org/2000/svg" viewBox="0 0 700 510" role="img"><title>莲华飞带纹－连续四方纹</title><desc>敦煌壁画装饰母题；原创结构转译，编号 LW-DH-001，生成种子 20。</desc><rect width="700" height="510" fill="#f4efe4"/><g transform="translate(-8 -26) scale(1.06) rotate(0 64 64)"><g fill="#d6a756" stroke="#244b5a" stroke-width="3"><ellipse cx="64" cy="38" rx="13" ry="29"/><ellipse cx="64" cy="90" rx="13" ry="29"/><ellipse cx="38" cy="64" rx="29" ry="13"/><ellipse cx="90" cy="64" rx="29" ry="13"/><ellipse transform="rotate(45 64 64)" cx="64" cy="38" rx="10" ry="25"/><ellipse transform="rotate(135 64 64)" cx="64" cy="38" rx="10" ry="25"/></g><circle cx="64" cy="64" r="15" fill="#244b5a"/><circle cx="64" cy="64" r="7" fill="#d6a756"/></g><g transform="translate(176 -26) scale(1.06) rotate(90 64 64)"><g fill="#d6a756" stroke="#244b5a" stroke-width="3"><ellipse cx="64" cy="38" rx="13" ry="29"/><ellipse cx="64" cy="90" rx="13" ry="29"/><ellipse cx="38" cy="64" rx="29" ry="13"/><ellipse cx="90" cy="64" rx="29" ry="13"/><ellipse transform="rotate(45 64 64)" cx="64" cy="38" rx="10" ry="25"/><ellipse transform="rotate(135 64 64)" cx="64" cy="38" rx="10" ry="25"/></g><circle cx="64" cy="64" r="15" fill="#244b5a"/><circle cx="64" cy="64" r="7" fill="#d6a756"/></g><g transform="translate(360 -26) scale(1.06) rotate(0 64 64)"><g fill="#d6a756" stroke="#244b5a" stroke-width="3"><ellipse cx="64" cy="38" rx="13" ry="29"/><ellipse cx="64" cy="90" rx="13" ry="29"/><ellipse cx="38" cy="64" rx="29" ry="13"/><ellipse cx="90" cy="64" rx="29" ry="13"/><ellipse transform="rotate(45 64 64)" cx="64" cy="38" rx="10" ry="25"/><ellipse transform="rotate(135 64 64)" cx="64" cy="38" rx="10" ry="25"/></g><circle cx="64" cy="64" r="15" fill="#244b5a"/><circle cx="64" cy="64" r="7" fill="#d6a756"/></g><g transform="translate(544 -26) scale(1.06) rotate(90 64 64)"><g fill="#d6a756" stroke="#244b5a" stroke-width="3"><ellipse cx="64" cy="38" rx="13" ry="29"/><ellipse cx="64" cy="90" rx="13" ry="29"/><ellipse cx="38" cy="64" rx="29" ry="13"/><ellipse cx="90" cy="64" rx="29" ry="13"/><ellipse transform="rotate(45 64 64)" cx="64" cy="38" rx="10" ry="25"/><ellipse transform="rotate(135 64 64)" cx="64" cy="38" rx="10" ry="25"/></g><circle cx="64" cy="64" r="15" fill="#244b5a"/><circle cx="64" cy="64" r="7" fill="#d6a756"/></g><g transform="translate(-8 158) scale(1.06) rotate(0 64 64)"><g fill="#d6a756" stroke="#244b5a" stroke-width="3"><ellipse cx="64" cy="38" rx="13" ry="29"/><ellipse cx="64" cy="90" rx="13" ry="29"/><ellipse cx="38" cy="64" rx="29" ry="13"/><ellipse cx="90" cy="64" rx="29" ry="13"/><ellipse transform="rotate(45 64 64)" cx="64" cy="38" rx="10" ry="25"/><ellipse transform="rotate(135 64 64)" cx="64" cy="38" rx="10" ry="25"/></g><circle cx="64" cy="64" r="15" fill="#244b5a"/><circle cx="64" cy="64" r="7" fill="#d6a756"/></g><g transform="translate(176 158) scale(1.06) rotate(90 64 64)"><g fill="#d6a756" stroke="#244b5a" stroke-width="3"><ellipse cx="64" cy="38" rx="13" ry="29"/><ellipse cx="64" cy="90" rx="13" ry="29"/><ellipse cx="38" cy="64" rx="29" ry="13"/><ellipse cx="90" cy="64" rx="29" ry="13"/><ellipse transform="rotate(45 64 64)" cx="64" cy="38" rx="10" ry="25"/><ellipse transform="rotate(135 64 64)" cx="64" cy="38" rx="10" ry="25"/></g><circle cx="64" cy="64" r="15" fill="#244b5a"/><circle cx="64" cy="64" r="7" fill="#d6a756"/></g><g transform="translate(360 158) scale(1.06) rotate(0 64 64)"><g fill="#d6a756" stroke="#244b5a" stroke-width="3"><ellipse cx="64" cy="38" rx="13" ry="29"/><ellipse cx="64" cy="90" rx="13" ry="29"/><ellipse cx="38" cy="64" rx="29" ry="13"/><ellipse cx="90" cy="64" rx="29" ry="13"/><ellipse transform="rotate(45 64 64)" cx="64" cy="38" rx="10" ry="25"/><ellipse transform="rotate(135 64 64)" cx="64" cy="38" rx="10" ry="25"/></g><circle cx="64" cy="64" r="15" fill="#244b5a"/><circle cx="64" cy="64" r="7" fill="#d6a756"/></g><g transform="translate(544 158) scale(1.06) rotate(90 64 64)"><g fill="#d6a756" stroke="#244b5a" stroke-width="3"><ellipse cx="64" cy="38" rx="13" ry="29"/><ellipse cx="64" cy="90" rx="13" ry="29"/><ellipse cx="38" cy="64" rx="29" ry="13"/><ellipse cx="90" cy="64" rx="29" ry="13"/><ellipse transform="rotate(45 64 64)" cx="64" cy="38" rx="10" ry="25"/><ellipse transform="rotate(135 64 64)" cx="64" cy="38" rx="10" ry="25"/></g><circle cx="64" cy="64" r="15" fill="#244b5a"/><circle cx="64" cy="64" r="7" fill="#d6a756"/></g><g transform="translate(-8 342) scale(1.06) rotate(0 64 64)"><g fill="#d6a756" stroke="#244b5a" stroke-width="3"><ellipse cx="64" cy="38" rx="13" ry="29"/><ellipse cx="64" cy="90" rx="13" ry="29"/><ellipse cx="38" cy="64" rx="29" ry="13"/><ellipse cx="90" cy="64" rx="29" ry="13"/><ellipse transform="rotate(45 64 64)" cx="64" cy="38" rx="10" ry="25"/><ellipse transform="rotate(135 64 64)" cx="64" cy="38" rx="10" ry="25"/></g><circle cx="64" cy="64" r="15" fill="#244b5a"/><circle cx="64" cy="64" r="7" fill="#d6a756"/></g><g transform="translate(176 342) scale(1.06) rotate(90 64 64)"><g fill="#d6a756" stroke="#244b5a" stroke-width="3"><ellipse cx="64" cy="38" rx="13" ry="29"/><ellipse cx="64" cy="90" rx="13" ry="29"/><ellipse cx="38" cy="64" rx="29" ry="13"/><ellipse cx="90" cy="64" rx="29" ry="13"/><ellipse transform="rotate(45 64 64)" cx="64" cy="38" rx="10" ry="25"/><ellipse transform="rotate(135 64 64)" cx="64" cy="38" rx="10" ry="25"/></g><circle cx="64" cy="64" r="15" fill="#244b5a"/><circle cx="64" cy="64" r="7" fill="#d6a756"/></g><g transform="translate(360 342) scale(1.06) rotate(0 64 64)"><g fill="#d6a756" stroke="#244b5a" stroke-width="3"><ellipse cx="64" cy="38" rx="13" ry="29"/><ellipse cx="64" cy="90" rx="13" ry="29"/><ellipse cx="38" cy="64" rx="29" ry="13"/><ellipse cx="90" cy="64" rx="29" ry="13"/><ellipse transform="rotate(45 64 64)" cx="64" cy="38" rx="10" ry="25"/><ellipse transform="rotate(135 64 64)" cx="64" cy="38" rx="10" ry="25"/></g><circle cx="64" cy="64" r="15" fill="#244b5a"/><circle cx="64" cy="64" r="7" fill="#d6a756"/></g><g transform="translate(544 342) scale(1.06) rotate(90 64 64)"><g fill="#d6a756" stroke="#244b5a" stroke-width="3"><ellipse cx="64" cy="38" rx="13" ry="29"/><ellipse cx="64" cy="90" rx="13" ry="29"/><ellipse cx="38" cy="64" rx="29" ry="13"/><ellipse cx="90" cy="64" rx="29" ry="13"/><ellipse transform="rotate(45 64 64)" cx="64" cy="38" rx="10" ry="25"/><ellipse transform="rotate(135 64 64)" cx="64" cy="38" rx="10" ry="25"/></g><circle cx="64" cy="64" r="15" fill="#244b5a"/><circle cx="64" cy="64" r="7" fill="#d6a756"/></g></svg>