<svg xmlns="http://www.w3.org/2000/svg" viewBox="0 0 700 510" role="img"><title>鸟首回旋点蜡纹－边框纹样版</title><desc>西南地区蜡染、扎染及民族工艺中的点蜡、冰纹与几何花母题；原创结构转译，编号 LW-BT-105，生成种子 1569。</desc><rect width="700" height="510" fill="#e9c46a"/><g transform="translate(-27 12) scale(0.82) rotate(0 64 64)"><path fill="none" stroke="#342a4d" stroke-width="3" stroke-linecap="round" stroke-linejoin="round" d="M64 17 C99 17 112 43 101 66 C90 91 49 90 39 67 C29 44 47 31 65 38 C82 44 84 66 70 76 C56 86 41 75 43 62"/><path fill="none" stroke="#342a4d" stroke-width="3" stroke-linecap="round" stroke-linejoin="round" d="M18 95 Q36 76 52 96 Q68 115 84 95 Q100 77 112 93"/><circle cx="64" cy="58" r="6" fill="#b95445"/></g><g transform="translate(81 12) scale(0.82) rotate(180 64 64)"><path fill="none" stroke="#342a4d" stroke-width="3" stroke-linecap="round" stroke-linejoin="round" d="M64 17 C99 17 112 43 101 66 C90 91 49 90 39 67 C29 44 47 31 65 38 C82 44 84 66 70 76 C56 86 41 75 43 62"/><path fill="none" stroke="#342a4d" stroke-width="3" stroke-linecap="round" stroke-linejoin="round" d="M18 95 Q36 76 52 96 Q68 115 84 95 Q100 77 112 93"/><circle cx="64" cy="58" r="6" fill="#b95445"/></g><g transform="translate(189 12) scale(0.82) rotate(0 64 64)"><path fill="none" stroke="#342a4d" stroke-width="3" stroke-linecap="round" stroke-linejoin="round" d="M64 17 C99 17 112 43 101 66 C90 91 49 90 39 67 C29 44 47 31 65 38 C82 44 84 66 70 76 C56 86 41 75 43 62"/><path fill="none" stroke="#342a4d" stroke-width="3" stroke-linecap="round" stroke-linejoin="round" d="M18 95 Q36 76 52 96 Q68 115 84 95 Q100 77 112 93"/><circle cx="64" cy="58" r="6" fill="#b95445"/></g><g transform="translate(297 12) scale(0.82) rotate(180 64 64)"><path fill="none" stroke="#342a4d" stroke-width="3" stroke-linecap="round" stroke-linejoin="round" d="M64 17 C99 17 112 43 101 66 C90 91 49 90 39 67 C29 44 47 31 65 38 C82 44 84 66 70 76 C56 86 41 75 43 62"/><path fill="none" stroke="#342a4d" stroke-width="3" stroke-linecap="round" stroke-linejoin="round" d="M18 95 Q36 76 52 96 Q68 115 84 95 Q100 77 112 93"/><circle cx="64" cy="58" r="6" fill="#b95445"/></g><g transform="translate(405 12) scale(0.82) rotate(0 64 64)"><path fill="none" stroke="#342a4d" stroke-width="3" stroke-linecap="round" stroke-linejoin="round" d="M64 17 C99 17 112 43 101 66 C90 91 49 90 39 67 C29 44 47 31 65 38 C82 44 84 66 70 76 C56 86 41 75 43 62"/><path fill="none" stroke="#342a4d" stroke-width="3" stroke-linecap="round" stroke-linejoin="round" d="M18 95 Q36 76 52 96 Q68 115 84 95 Q100 77 112 93"/><circle cx="64" cy="58" r="6" fill="#b95445"/></g><g transform="translate(513 12) scale(0.82) rotate(180 64 64)"><path fill="none" stroke="#342a4d" stroke-width="3" stroke-linecap="round" stroke-linejoin="round" d="M64 17 C99 17 112 43 101 66 C90 91 49 90 39 67 C29 44 47 31 65 38 C82 44 84 66 70 76 C56 86 41 75 43 62"/><path fill="none" stroke="#342a4d" stroke-width="3" stroke-linecap="round" stroke-linejoin="round" d="M18 95 Q36 76 52 96 Q68 115 84 95 Q100 77 112 93"/><circle cx="64" cy="58" r="6" fill="#b95445"/></g><g transform="translate(621 12) scale(0.82) rotate(0 64 64)"><path fill="none" stroke="#342a4d" stroke-width="3" stroke-linecap="round" stroke-linejoin="round" d="M64 17 C99 17 112 43 101 66 C90 91 49 90 39 67 C29 44 47 31 65 38 C82 44 84 66 70 76 C56 86 41 75 43 62"/><path fill="none" stroke="#342a4d" stroke-width="3" stroke-linecap="round" stroke-linejoin="round" d="M18 95 Q36 76 52 96 Q68 115 84 95 Q100 77 112 93"/><circle cx="64" cy="58" r="6" fill="#b95445"/></g><g transform="translate(-27 392) scale(0.82) rotate(180 64 64)"><path fill="none" stroke="#342a4d" stroke-width="3" stroke-linecap="round" stroke-linejoin="round" d="M64 17 C99 17 112 43 101 66 C90 91 49 90 39 67 C29 44 47 31 65 38 C82 44 84 66 70 76 C56 86 41 75 43 62"/><path fill="none" stroke="#342a4d" stroke-width="3" stroke-linecap="round" stroke-linejoin="round" d="M18 95 Q36 76 52 96 Q68 115 84 95 Q100 77 112 93"/><circle cx="64" cy="58" r="6" fill="#b95445"/></g><g transform="translate(81 392) scale(0.82) rotate(0 64 64)"><path fill="none" stroke="#342a4d" stroke-width="3" stroke-linecap="round" stroke-linejoin="round" d="M64 17 C99 17 112 43 101 66 C90 91 49 90 39 67 C29 44 47 31 65 38 C82 44 84 66 70 76 C56 86 41 75 43 62"/><path fill="none" stroke="#342a4d" stroke-width="3" stroke-linecap="round" stroke-linejoin="round" d="M18 95 Q36 76 52 96 Q68 115 84 95 Q100 77 112 93"/><circle cx="64" cy="58" r="6" fill="#b95445"/></g><g transform="translate(189 392) scale(0.82) rotate(180 64 64)"><path fill="none" stroke="#342a4d" stroke-width="3" stroke-linecap="round" stroke-linejoin="round" d="M64 17 C99 17 112 43 101 66 C90 91 49 90 39 67 C29 44 47 31 65 38 C82 44 84 66 70 76 C56 86 41 75 43 62"/><path fill="none" stroke="#342a4d" stroke-width="3" stroke-linecap="round" stroke-linejoin="round" d="M18 95 Q36 76 52 96 Q68 115 84 95 Q100 77 112 93"/><circle cx="64" cy="58" r="6" fill="#b95445"/></g><g transform="translate(297 392) scale(0.82) rotate(0 64 64)"><path fill="none" stroke="#342a4d" stroke-width="3" stroke-linecap="round" stroke-linejoin="round" d="M64 17 C99 17 112 43 101 66 C90 91 49 90 39 67 C29 44 47 31 65 38 C82 44 84 66 70 76 C56 86 41 75 43 62"/><path fill="none" stroke="#342a4d" stroke-width="3" stroke-linecap="round" stroke-linejoin="round" d="M18 95 Q36 76 52 96 Q68 115 84 95 Q100 77 112 93"/><circle cx="64" cy="58" r="6" fill="#b95445"/></g><g transform="translate(405 392) scale(0.82) rotate(180 64 64)"><path fill="none" stroke="#342a4d" stroke-width="3" stroke-linecap="round" stroke-linejoin="round" d="M64 17 C99 17 112 43 101 66 C90 91 49 90 39 67 C29 44 47 31 65 38 C82 44 84 66 70 76 C56 86 41 75 43 62"/><path fill="none" stroke="#342a4d" stroke-width="3" stroke-linecap="round" stroke-linejoin="round" d="M18 95 Q36 76 52 96 Q68 115 84 95 Q100 77 112 93"/><circle cx="64" cy="58" r="6" fill="#b95445"/></g><g transform="translate(513 392) scale(0.82) rotate(0 64 64)"><path fill="none" stroke="#342a4d" stroke-width="3" stroke-linecap="round" stroke-linejoin="round" d="M64 17 C99 17 112 43 101 66 C90 91 49 90 39 67 C29 44 47 31 65 38 C82 44 84 66 70 76 C56 86 41 75 43 62"/><path fill="none" stroke="#342a4d" stroke-width="3" stroke-linecap="round" stroke-linejoin="round" d="M18 95 Q36 76 52 96 Q68 115 84 95 Q100 77 112 93"/><circle cx="64" cy="58" r="6" fill="#b95445"/></g><g transform="translate(621 392) scale(0.82) rotate(180 64 64)"><path fill="none" stroke="#342a4d" stroke-width="3" stroke-linecap="round" stroke-linejoin="round" d="M64 17 C99 17 112 43 101 66 C90 91 49 90 39 67 C29 44 47 31 65 38 C82 44 84 66 70 76 C56 86 41 75 43 62"/><path fill="none" stroke="#342a4d" stroke-width="3" stroke-linecap="round" stroke-linejoin="round" d="M18 95 Q36 76 52 96 Q68 115 84 95 Q100 77 112 93"/><circle cx="64" cy="58" r="6" fill="#b95445"/></g><rect x="8" y="8" width="684" height="494" fill="none" stroke="#f7f0df" stroke-width="5"/></svg>